HIERARCHY
ROOT SimulationBone
{
	OFFSET 0.000000 0.000000 0.000000
	CHANNELS 6 Xposition Yposition Zposition Zrotation Yrotation Xrotation 
	JOINT Hips
	{
		OFFSET 0.000000 0.000000 0.000000
		CHANNELS 6 Xposition Yposition Zposition Zrotation Yrotation Xrotation 
		JOINT RightUpLeg
		{
			OFFSET 0.103456 1.857826 10.548504
			CHANNELS 3 Zrotation Yrotation Xrotation
			JOINT RightLeg
			{
				OFFSET 43.499996 -0.000038 0.000006
				CHANNELS 3 Zrotation Yrotation Xrotation
				JOINT RightFoot
				{
					OFFSET 42.372192 0.000011 -0.000004
					CHANNELS 3 Zrotation Yrotation Xrotation
					JOINT RightToe
					{
						OFFSET 17.300018 0.000006 0.000004
						CHANNELS 3 Zrotation Yrotation Xrotation
						End Site
						{
							OFFSET 0.000000 0.000000 0.000000
						}
					}
				}
			}
		}
		JOINT LeftUpLeg
		{
			OFFSET 0.103455 1.857819 -10.548502
			CHANNELS 3 Zrotation Yrotation Xrotation
			JOINT LeftLeg
			{
				OFFSET 43.500038 -0.000031 0.000011
				CHANNELS 3 Zrotation Yrotation Xrotation
				JOINT LeftFoot
				{
					OFFSET 42.372261 -0.000008 0.000014
					CHANNELS 3 Zrotation Yrotation Xrotation
					JOINT LeftToe
					{
						OFFSET 17.299999 -0.000004 0.000004
						CHANNELS 3 Zrotation Yrotation Xrotation
						End Site
						{
							OFFSET 0.000000 0.000000 0.000000
						}
					}
				}
			}
		}
		JOINT Spine
		{
			OFFSET 6.901965 -2.603737 -0.000000
			CHANNELS 3 Zrotation Yrotation Xrotation
			JOINT Spine1
			{
				OFFSET 12.588105 0.000013 0.000001
				CHANNELS 3 Zrotation Yrotation Xrotation
				JOINT Spine2
				{
					OFFSET 12.343203 0.000010 -0.000000
					CHANNELS 3 Zrotation Yrotation Xrotation
					JOINT Neck
					{
						OFFSET 25.832893 -0.000038 0.000001
						CHANNELS 3 Zrotation Yrotation Xrotation
						JOINT Head
						{
							OFFSET 11.766606 0.000028 0.000001
							CHANNELS 3 Zrotation Yrotation Xrotation
							End Site
							{
								OFFSET 0.000000 0.000000 0.000000
							}
						}
					}
					JOINT RightShoulder
					{
						OFFSET 19.745897 -1.480375 6.000107
						CHANNELS 3 Zrotation Yrotation Xrotation
						JOINT RightArm
						{
							OFFSET 11.284126 -0.000009 -0.000017
							CHANNELS 3 Zrotation Yrotation Xrotation
							JOINT RightForeArm
							{
								OFFSET 33.000046 0.000006 0.000030
								CHANNELS 3 Zrotation Yrotation Xrotation
								JOINT RightHand
								{
									OFFSET 25.200006 0.000034 0.000015
									CHANNELS 3 Zrotation Yrotation Xrotation
									End Site
									{
										OFFSET 0.000000 0.000000 0.000000
									}
								}
							}
						}
					}
					JOINT LeftShoulder
					{
						OFFSET 19.746096 -1.480394 -6.000075
						CHANNELS 3 Zrotation Yrotation Xrotation
						JOINT LeftArm
						{
							OFFSET 11.284135 -0.000006 -0.000006
							CHANNELS 3 Zrotation Yrotation Xrotation
							JOINT LeftForeArm
							{
								OFFSET 33.000095 0.000018 0.000006
								CHANNELS 3 Zrotation Yrotation Xrotation
								JOINT LeftHand
								{
									OFFSET 25.199783 0.000116 0.000436
									CHANNELS 3 Zrotation Yrotation Xrotation
									End Site
									{
										OFFSET 0.000000 0.000000 0.000000
									}
								}
							}
						}
					}
				}
			}
		}
	}
}
MOTION
Frames: 10
Frame Time: 0.016667
-95.530872 0.000000 -526.025825 0.000000 -53.872215 0.000000 -12.924256 98.672157 8.064264 76.506677 14.922238 -175.104086 176.545746 -3.496788 179.912988 -33.258447 -4.974395 -16.235220 47.897944 -2.535741 -27.473036 21.454568 0.003108 0.000018 139.431891 -3.785907 -157.754612 -67.671806 -3.887281 1.315976 75.443803 4.442758 18.265377 21.454555 -0.003094 0.000001 13.012692 0.281555 -0.784217 16.008343 0.669058 -1.521852 15.690341 0.659714 -1.525867 -24.898814 6.957256 -0.863644 -14.155749 4.190534 1.225334 110.223512 -72.580236 69.761827 -41.856413 48.227237 -9.282679 -76.502837 -7.275850 2.265780 6.552178 -4.613332 33.006202 134.995953 76.712869 -44.383027 -18.637036 -52.273557 -8.797004 -83.056957 7.216880 -2.504187 5.922442 9.863780 -26.139360 
-92.485957 0.000000 -526.095057 0.000000 -53.200897 0.000000 -12.734773 99.109766 6.948238 76.845608 13.029044 -177.488669 178.784221 -0.632199 -179.414343 -33.940519 -5.813701 -14.736221 47.736219 -3.778906 -27.585644 21.454568 0.003109 0.000017 139.020145 -5.012164 -155.976593 -65.024311 -3.115946 -0.673775 76.708278 6.467676 21.152660 21.454553 -0.003089 -0.000000 12.874353 0.174482 -0.991886 15.731921 0.482389 -1.950741 15.413999 0.470463 -1.953623 -26.190838 7.387219 -0.618841 -12.781381 3.834662 1.924174 111.138743 -72.340308 68.866473 -41.577917 49.003645 -8.541990 -76.587262 -7.253405 2.266872 6.009424 -5.284582 32.323318 135.972558 76.828784 -43.385351 -15.078217 -52.799934 -10.319387 -84.712814 6.057303 -2.496222 5.898436 9.193979 -26.316079 
-89.534209 0.000000 -526.196165 0.000000 -52.588153 0.000000 -12.456369 99.209373 5.873109 77.323019 11.411085 -179.482513 -179.098884 1.852597 -179.428414 -35.472583 -6.297444 -14.285863 48.775992 -4.175913 -28.237644 21.454562 0.003109 0.000017 138.919613 -6.448504 -154.340378 -61.615013 -2.410126 -2.907081 76.954811 8.654615 23.349570 21.454553 -0.003090 -0.000001 12.737617 0.135340 -1.193009 15.458093 0.429079 -2.357128 15.140272 0.414700 -2.359681 -27.032739 7.727467 -0.358052 -11.834600 3.563699 2.517262 111.761085 -72.171572 68.257841 -41.742222 49.820198 -8.191953 -76.626628 -7.228034 2.266151 5.614454 -5.909409 31.591847 137.376015 76.954541 -41.955056 -11.687444 -53.191459 -11.795995 -86.111998 4.984088 -2.482049 5.724634 8.845384 -26.365916 
-86.666985 0.000000 -526.323786 0.000000 -52.032087 0.000000 -12.094352 99.058851 4.850102 77.892349 9.971969 178.933190 -177.290014 3.952976 179.978050 -37.808528 -6.426532 -14.289368 50.104177 -4.130815 -28.897542 21.454553 0.003109 0.000017 139.120224 -7.953016 -153.069074 -57.712812 -1.718555 -4.903290 76.582670 10.627899 24.854450 21.454552 -0.003093 -0.000001 12.605377 0.139716 -1.396275 15.192447 0.461829 -2.761986 14.874745 0.445004 -2.764729 -27.574944 7.976597 -0.123311 -11.200780 3.343821 2.991030 112.159006 -72.031895 67.871580 -42.177623 50.652771 -8.149346 -76.713504 -7.174517 2.265968 5.330567 -6.452804 30.904332 139.294937 77.064768 -40.003787 -8.544454 -53.513095 -13.119451 -87.290025 4.024517 -2.466591 5.468906 8.723459 -26.270400 
-83.875638 0.000000 -526.472558 0.000000 -51.530701 0.000000 -11.654087 98.746071 3.889924 78.518331 8.611283 177.781122 -175.958104 5.644114 178.901724 -40.917808 -6.182207 -14.166768 50.809424 -4.081703 -29.032288 21.454548 0.003108 0.000017 139.632288 -9.376693 -152.389688 -53.577680 -1.074930 -6.187299 75.976646 11.959155 25.692360 21.454553 -0.003094 -0.000002 12.480705 0.163182 -1.610251 14.941281 0.533242 -3.185811 14.623712 0.513857 -3.188977 -27.968553 8.133703 0.040294 -10.766445 3.137653 3.328863 112.391477 -71.877731 67.652850 -42.703288 51.474084 -8.320758 -76.940420 -7.067626 2.268379 5.118530 -6.879697 30.354490 141.805092 77.129011 -37.456034 -5.716727 -53.836505 -14.196519 -88.281765 3.206042 -2.453446 5.200458 8.734339 -26.011767 
-81.151524 0.000000 -526.637119 0.000000 -51.081922 0.000000 -11.146151 98.338317 3.002051 79.183931 7.244709 177.073402 -175.183730 6.860979 177.485853 -44.697514 -5.571169 -13.510352 50.347009 -4.368581 -28.339704 21.454548 0.003108 0.000017 140.456374 -10.586087 -152.483051 -49.489403 -0.596423 -6.373047 75.392630 12.268649 25.844656 21.454553 -0.003090 -0.000003 12.367829 0.184613 -1.839437 14.713425 0.601981 -3.640328 14.396007 0.579858 -3.643900 -28.345779 8.197328 0.092934 -10.429028 2.911685 3.514838 112.507781 -71.672275 67.555797 -43.148829 52.257124 -8.595633 -77.386201 -6.887452 2.274886 4.930872 -7.181298 30.022475 144.895164 77.114098 -34.323980 -3.244447 -54.231403 -14.971536 -89.128940 2.557768 -2.445744 4.976796 8.791894 -25.596752 
-78.485997 0.000000 -526.812107 0.000000 -50.683619 0.000000 -10.601997 97.820518 2.192150 79.920301 5.861980 176.774124 -174.736689 7.455512 176.078042 -48.760993 -4.900052 -12.519923 49.612085 -4.883779 -27.387685 21.454553 0.003108 0.000018 141.498214 -11.545808 -153.339167 -45.858555 -0.432166 -5.390435 74.550838 11.464011 25.000844 21.454553 -0.003087 -0.000003 12.275083 0.196193 -2.072454 14.525869 0.651393 -4.103737 14.208627 0.626486 -4.107599 -28.762308 8.161209 0.022599 -10.126847 2.656854 3.542399 112.534467 -71.408477 67.554516 -43.421110 52.975642 -8.833892 -78.075167 -6.635418 2.286874 4.693539 -7.452694 29.931032 148.285029 77.000816 -30.891095 -1.093954 -54.742608 -15.498146 -89.902398 2.114601 -2.448846 4.805917 8.840608 -25.131823 
-75.870414 0.000000 -526.992161 0.000000 -50.333616 0.000000 -10.049190 97.160003 1.466358 80.766391 4.469319 176.839438 -174.386302 7.327349 174.989896 -52.789483 -4.480910 -11.540621 49.634979 -5.351424 -26.748210 21.454557 0.003109 0.000019 142.693494 -12.193980 -154.863946 -43.065101 -0.663533 -3.538999 73.117121 9.791879 23.077352 21.454551 -0.003088 -0.000001 12.208760 0.194266 -2.296274 14.391552 0.673048 -4.550391 14.074514 0.645463 -4.554375 -29.212490 8.008178 -0.165714 -9.831496 2.376757 3.405770 112.497315 -71.091252 67.622671 -43.453932 53.613032 -8.893745 -79.002106 -6.317024 2.304508 4.345796 -7.787947 30.049682 151.644807 76.796389 -27.490360 0.794095 -55.400403 -15.852223 -90.679422 1.878819 -2.466296 4.677047 8.865512 -24.738956 
-73.296129 0.000000 -527.171917 0.000000 -50.029705 0.000000 -9.479712 96.336067 0.839445 81.743497 3.059544 177.245848 -174.269176 6.625304 174.133296 -56.944758 -4.211393 -11.095043 50.507475 -5.137976 -26.081618 21.454558 0.003109 0.000019 144.220919 -12.268401 -156.836265 -41.162838 -1.130112 -2.254989 70.853718 8.664793 21.098243 21.454550 -0.003092 0.000001 12.162835 0.178128 -2.507137 14.298635 0.665163 -4.972867 13.981820 0.635040 -4.976794 -29.523345 7.684169 -0.428486 -9.607619 2.101410 3.093928 112.438120 -70.743879 67.715927 -43.230722 54.187205 -8.672943 -80.098379 -5.933101 2.325207 3.904647 -8.174406 30.188342 154.760009 76.561191 -24.335931 2.505330 -56.220723 -16.086105 -91.534171 1.716498 -2.493364 4.556974 8.985694 -24.502692 
-70.754497 0.000000 -527.346015 0.000000 -49.769657 0.000000 -8.886313 95.342496 0.316530 82.842861 1.654761 177.965201 -174.574956 5.491025 173.344199 -61.380840 -3.947844 -11.606834 52.091824 -3.808744 -25.060836 21.454551 0.003107 0.000019 146.212160 -11.639845 -158.927076 -40.062958 -1.600151 -2.740499 67.634938 8.991661 19.105449 21.454551 -0.003094 0.000000 12.123511 0.154607 -2.698991 14.219428 0.640212 -5.358342 13.902836 0.607762 -5.362107 -29.495942 7.131557 -0.718829 -9.530046 1.868267 2.594811 112.417478 -70.398888 67.770142 -42.758954 54.719633 -8.083245 -81.286150 -5.486910 2.346116 3.405511 -8.567531 30.173535 157.575161 76.361102 -21.481367 4.117867 -57.190057 -16.264881 -92.537156 1.491528 -2.522389 4.407035 9.336019 -24.469343 
